<svg xmlns="http://www.w3.org/2000/svg" width="24" height="24" fill="none" viewBox="0 0 24 24">
    <path fill="#686B6F" fill-rule="evenodd" d="M12 23C5.925 23 1 18.075 1 12S5.925 1 12 1s11 4.925 11 11-4.925 11-11 11zm0-2a9 9 0 1 0 0-18 9 9 0 0 0 0 18zm4.27-4.785c.388-.393.274-1.024-.177-1.342-.452-.318-1.07-.196-1.489.164A3.988 3.988 0 0 1 12 16a3.988 3.988 0 0 1-2.604-.963c-.42-.36-1.037-.482-1.489-.164-.451.318-.565.949-.177 1.342A5.988 5.988 0 0 0 12 18c1.635 0 3.16-.66 4.27-1.785zM15 11a1 1 0 1 1 0-2 1 1 0 0 1 0 2zM9 9a1 1 0 1 0 0 2 1 1 0 0 0 0-2z" clip-rule="evenodd"/>
</svg>
